<svg width="71" height="30" viewBox="0 0 71 30" fill="none" xmlns="http://www.w3.org/2000/svg">
<path d="M0 19.0658V29.9802H4.49917V23.2134H4.99456C5.52245 23.2134 5.7336 23.2333 6.22087 23.3328C7.50809 23.5995 8.58415 24.1767 9.5384 25.12C10.5251 26.0913 11.3291 27.365 12.2143 29.3552L12.4905 29.9682L14.9634 29.9762H17.4322L17.3998 29.9125C17.0627 29.1363 16.3602 27.5441 16.2222 27.2416C15.2395 25.1081 14.0904 23.3209 12.9331 22.1307C12.8072 22.0034 12.7097 21.8959 12.7138 21.8919C12.7179 21.8919 12.8437 21.8043 12.9899 21.7088C13.4001 21.4342 13.7005 21.1914 14.0741 20.8212C14.6588 20.248 15.0771 19.6828 15.4385 18.9703C15.8324 18.1941 16.0638 17.4418 16.1694 16.5541C16.2222 16.1203 16.2222 15.2406 16.1694 14.8067C16.0232 13.6206 15.6496 12.6016 15.0121 11.6502C13.8183 9.86303 11.8123 8.65696 9.41658 8.27882C8.63694 8.15542 8.86434 8.1594 4.25553 8.15542L0 8.14746L0 19.0658ZM8.01973 12.6334C9.24604 12.7051 10.1881 13.0514 10.8419 13.6763C11.4063 14.2176 11.6865 14.8784 11.6865 15.6824C11.6865 16.2795 11.5403 16.7651 11.2317 17.2388C11.0733 17.4816 10.6835 17.8597 10.4317 18.0229C9.87949 18.3812 9.19325 18.6081 8.40143 18.6996C8.16997 18.7235 7.77609 18.7314 6.31021 18.7314H4.50323V12.6095H6.07875C6.94366 12.6095 7.82076 12.6215 8.02379 12.6294" fill="#ffffff"/>
<path d="M28.3666 9.03525C26.1414 9.20242 24.1395 9.99453 22.5518 11.3439C22.231 11.6146 21.6544 12.1917 21.4026 12.4982C20.0098 14.178 19.2018 16.2597 19.0272 18.6122C18.9988 18.9983 18.9988 19.9695 19.0272 20.3556C19.3601 24.8296 22.231 28.4956 26.3079 29.6459C27.1647 29.8888 28.0133 30.0002 28.9838 30.0002C30.4294 30.0002 31.5786 29.7773 32.5328 29.3076C33.2759 28.9414 33.9012 28.3961 34.2992 27.7712C34.6159 27.2696 34.8474 26.6367 34.9164 26.0914C34.9286 25.9839 34.9448 25.8725 34.9489 25.8446C34.9529 25.8128 34.957 26.6606 34.9611 27.7234V29.6579H39.3993L39.3912 24.1131C39.3831 18.039 39.3912 18.4569 39.2531 17.5892C38.7902 14.6556 37.2431 12.1838 34.9204 10.6632C33.5601 9.77163 32.0618 9.25019 30.3319 9.06709C29.9502 9.02728 28.7524 9.00738 28.3666 9.03923M30.1452 13.4296C31.3918 13.6167 32.3826 14.0864 33.1947 14.8825C34.1164 15.7861 34.6971 17.028 34.9083 18.5445C34.957 18.8908 34.9773 19.7426 34.9448 20.0969C34.7986 21.693 34.1895 23.0305 33.146 24.0495C32.2729 24.8973 31.2496 25.4028 30.0071 25.5939C29.6498 25.6496 28.7199 25.6496 28.3625 25.5939C26.7342 25.3431 25.4064 24.4992 24.4928 23.134C24.2979 22.8434 23.9974 22.2543 23.8756 21.9319C23.5873 21.1636 23.4492 20.3636 23.4492 19.4879C23.4492 18.035 23.7943 16.8011 24.4928 15.7741C25.4105 14.4208 26.8723 13.5769 28.6427 13.3819C28.9473 13.35 29.8081 13.3739 30.1573 13.4257" fill="#ffffff"/>
<path d="M60.4339 0.0153252C59.7761 0.0750318 59.1589 0.33376 58.6472 0.759667C58.5254 0.863158 56.0362 3.61762 55.8089 3.90421C55.7073 4.03159 55.5733 4.29031 55.5165 4.46147C55.4434 4.69234 55.4312 5.15009 55.4921 5.40484C55.5774 5.75512 55.752 6.06161 56.0159 6.3084C56.3286 6.60693 56.6494 6.75022 57.1042 6.80595C57.5955 6.86168 58.1153 6.71838 58.4929 6.41985C58.562 6.36412 58.9964 5.90637 59.4512 5.40882C60.2593 4.5172 60.2837 4.4973 60.438 4.42167C60.7709 4.25847 61.1445 4.31022 61.4125 4.55302C61.4612 4.60079 61.847 5.01077 62.2652 5.46454C62.6835 5.91831 63.0733 6.33228 63.1383 6.388C63.723 6.88158 64.6163 6.95721 65.2863 6.56712C65.4731 6.45567 65.7411 6.21287 65.8589 6.04171C65.9807 5.86657 66.0863 5.6357 66.1431 5.4327C66.204 5.20581 66.2081 4.79185 66.1513 4.56894C66.1066 4.38186 65.9685 4.09527 65.8629 3.948C65.7696 3.81664 63.524 1.29703 63.3088 1.08208C62.8418 0.60841 62.2409 0.266093 61.5993 0.110856C61.2176 0.0153252 60.7791 -0.0204987 60.4298 0.0113448" fill="#ffffff"/>
<path d="M60.1493 9.01457C59.792 9.04244 59.2844 9.09816 58.9433 9.15389C56.0075 9.63552 53.494 11.3551 52.0443 13.8707C51.0414 15.6102 50.5581 17.5845 50.6069 19.7737C50.6393 21.2504 50.8952 22.5441 51.4068 23.8138C51.5489 24.1681 51.8535 24.797 52.0484 25.1274C52.5275 25.9553 53.2219 26.8111 53.9 27.4281C55.4796 28.8531 57.3881 29.689 59.6336 29.9357C60.3077 30.0114 61.5015 29.9994 62.2121 29.9119C66.8778 29.3347 70.2968 25.8638 70.9019 21.0912C70.9749 20.5021 70.9993 20.1638 70.9993 19.4951C70.9993 18.8264 70.9749 18.4681 70.9019 17.8989C70.4592 14.4479 68.5223 11.5899 65.6271 10.1172C64.482 9.53203 63.3207 9.19767 61.9725 9.0504C61.6721 9.01855 60.4376 8.99069 60.1493 9.01059M61.4893 13.4289C62.606 13.5443 63.5887 13.9304 64.3846 14.5553C65.4403 15.3833 66.159 16.661 66.4108 18.1377C66.5001 18.6512 66.5204 18.9179 66.5204 19.4951C66.5204 20.1081 66.488 20.4583 66.3783 20.9837C66.2524 21.5967 66.0981 22.0505 65.8301 22.5879C64.8881 24.4865 63.0445 25.5931 60.8234 25.5931C59.8326 25.5931 59.0002 25.414 58.2002 25.0279C57.6845 24.7811 57.2257 24.4507 56.7993 24.0328C55.8207 23.0615 55.24 21.7321 55.0938 20.12C55.0614 19.7458 55.0817 18.8662 55.1304 18.5039C55.3659 16.7406 56.1293 15.3634 57.3678 14.4518C58.1353 13.8866 59.0733 13.5403 60.1209 13.4289C60.4701 13.3891 61.1279 13.3891 61.4812 13.4289" fill="#ffffff"/>
<path d="M44.6188 2.2127C43.628 2.33609 42.8199 2.98888 42.5073 3.91234C42.3205 4.46164 42.3205 5.1821 42.5073 5.72742C42.8037 6.59516 43.5184 7.22009 44.4442 7.41513C44.6635 7.46289 45.1304 7.47881 45.3741 7.44697C45.9832 7.36736 46.5192 7.11261 46.9212 6.69865C47.1364 6.47972 47.2501 6.32449 47.38 6.06974C47.5668 5.69956 47.648 5.38908 47.6602 4.93133C47.6805 4.40592 47.5993 4.01185 47.3963 3.59391C47.0186 2.83364 46.3324 2.34405 45.4675 2.22066C45.2238 2.18483 44.8543 2.18085 44.6188 2.20871" fill="#ffffff"/>
<path d="M42.799 18.6873V27.691L42.8518 27.8861C42.9736 28.3956 43.1888 28.7976 43.534 29.1479C43.9319 29.5578 44.4598 29.8365 45.0201 29.932C45.1744 29.9599 45.4221 29.9638 46.2221 29.9638H47.2291V9.6875H42.7949L42.803 18.6873H42.799Z" fill="#ffffff"/>
</svg>
